<svg width="16" height="16" viewBox="0 0 16 16" fill="none" xmlns="http://www.w3.org/2000/svg">
<path d="M10.2784 13.1814C10.2779 12.7864 10.3836 12.3986 10.5844 12.0585L5.53729 9.11897C5.34206 9.45428 5.06243 9.73239 4.72602 9.92572C4.38961 10.1191 4.00838 10.2209 3.62037 10.2208C3.03158 10.2205 2.46667 9.98656 2.05033 9.57023C1.634 9.15389 1.40026 8.5892 1.40002 8.00041C1.40026 7.4117 1.6344 6.84721 2.05076 6.43102C2.46713 6.01482 3.03166 5.78092 3.62037 5.78092C4.00851 5.78075 4.38989 5.8824 4.72645 6.07573C5.06301 6.26907 5.34277 6.54732 5.53815 6.8827L10.5809 3.93888C10.3825 3.59957 10.2779 3.21342 10.2784 2.82032C10.2785 2.52863 10.3362 2.23976 10.448 1.97031C10.5597 1.70087 10.7232 1.45603 10.9296 1.24985C11.1359 1.04368 11.3809 0.880204 11.6504 0.768686C11.92 0.657168 12.2088 0.59986 12.5005 0.599976C12.792 0.599976 13.0807 0.657309 13.35 0.768901C13.6194 0.880493 13.864 1.0441 14.0701 1.25028C14.2762 1.45647 14.4397 1.70137 14.5512 1.97074C14.6627 2.24012 14.7201 2.52879 14.7199 2.82032C14.7201 3.11181 14.6627 3.40036 14.5512 3.66968C14.4397 3.93901 14.2762 4.18381 14.0701 4.38993C13.8639 4.59604 13.6194 4.75938 13.35 4.87088C13.0807 4.98237 12.7919 5.0397 12.5005 5.03959C12.1122 5.03981 11.7308 4.93836 11.3939 4.74521C11.0571 4.55205 10.7769 4.27412 10.5809 3.93888L5.53815 6.8827C5.73601 7.22191 5.8403 7.60771 5.83985 8.00041C5.8405 8.39324 5.73589 8.77917 5.53729 9.11811L10.5844 12.0576C10.7799 11.723 11.0599 11.4455 11.3961 11.2528C11.7323 11.0601 12.1129 10.9589 12.5005 10.9593C12.7921 10.9593 13.0811 11.0168 13.3505 11.1284C13.6198 11.2401 13.8644 11.4037 14.0705 11.61C14.2766 11.8163 14.4402 12.0612 14.5517 12.3307C14.6631 12.6002 14.7202 12.8889 14.7199 13.1805C14.7199 13.7691 14.4863 14.3337 14.0701 14.7499C13.6538 15.1661 13.0891 15.4 12.5005 15.4C11.9117 15.4002 11.3471 15.1665 10.9304 14.7505C10.5138 14.3345 10.2791 13.7701 10.2784 13.1814V13.1814Z" stroke="white" stroke-width="1.2" stroke-linecap="round"/>
</svg>
