<svg width="500" height="500" viewBox="0 0 500 500" fill="none" xmlns="http://www.w3.org/2000/svg">
<circle cx="50" cy="250" r="50" fill="#0F2F44"/>
<circle cx="50" cy="450" r="50" fill="#0F2F44"/>
<circle cx="450" cy="250" r="50" fill="#0F2F44"/>
<circle cx="450" cy="450" r="50" fill="#0F2F44"/>
<path d="M50 0C70.8881 0 91.2967 10 112.185 10H250.994C250.997 10 251 10.0027 251 10.0059C251 10.0092 251.003 10.0118 251.006 10.0119C272.632 10.5456 290 28.2449 290 50C290 51.9614 289.858 53.8896 289.585 55.7754C289.568 55.8937 289.659 56 289.779 56C289.896 56 289.987 56.1029 289.973 56.2195L280.484 132.578C279.83 137.841 279.793 143.163 280.372 148.435L284.583 186.732C286.784 206.75 298.001 225.423 299.799 245.481C299.932 246.97 300 248.477 300 250C300 251.884 299.896 253.743 299.693 255.573C297.735 273.213 288.525 289.686 286.311 307.296L281.525 345.365C280.512 353.425 280.485 361.578 281.444 369.645L283.22 384.58C285.679 405.257 297.763 424.405 299.766 445.131C299.921 446.733 300 448.357 300 450C300 477.614 277.614 500 250 500C222.386 500 200 477.614 200 450C200 448.208 200.094 446.439 200.278 444.696C202.704 421.697 217.639 400.867 220.736 377.949L221.638 371.275C222.874 362.136 222.838 352.869 221.534 343.739L217.267 313.869C214.445 294.115 202.811 275.969 200.376 256.163C200.128 254.144 200 252.087 200 250C200 229.112 210 208.616 210 187.728C210 133.9 166.1 90 112.272 90C91.3836 90 70.8881 100 50 100C22.3858 100 0 77.6142 0 50C0 22.3858 22.3858 0 50 0Z" fill="#164666"/>
<path d="M449.755 0C477.505 0 500 22.3858 500 50C500 77.6142 477.505 100 449.755 100C430.397 99.9999 411.293 91.7694 391.942 92.3069L299.998 94.8612C297.26 94.9372 295 92.7385 295 90C295 45.8172 330.818 10 375 10H388.515C408.699 10 428.349 0.496454 448.527 0.0146463C448.936 0.00490184 449.345 1.18367e-06 449.755 0Z" fill="#123A55"/>
</svg>
